<?xml version="1.0" encoding="utf-8"?>
<!-- Generator: Adobe Illustrator 25.4.1, SVG Export Plug-In . SVG Version: 6.00 Build 0)  -->
<svg version="1.1" id="Layer_1" xmlns="http://www.w3.org/2000/svg" xmlns:xlink="http://www.w3.org/1999/xlink" x="0px" y="0px"
	 viewBox="0 0 100 125" style="enable-background:new 0 0 100 125;" xml:space="preserve">
<style type="text/css">
	.st0{fill:#FFFFFF;}
</style>
<g>
	<path class="st0" d="M83,61.5L53.7,32.1c-2.7-2.7-7-2.9-9.9-0.5c-0.2,0.1-0.4,0.3-0.6,0.5L13.8,61.4c-1.4,1.4-1.5,3.8,0,5.2
		c0,0,0,0,0,0c0.2,0.2,0.4,0.3,0.6,0.5c0.6,0.4,1.3,0.6,2,0.6c0.7,0,1.5-0.2,2.1-0.6c0.2-0.1,0.4-0.3,0.6-0.5l2.4-2.4v16.9
		c0,7.5,6.6,13.8,14.4,13.8H62c7.7,0,13.9-6.1,13.9-13.8V64.9l1.8,1.8c1.4,1.4,3.8,1.5,5.2,0c0,0,0,0,0,0
		C84.4,65.3,84.4,62.9,83,61.5C83,61.5,83,61.5,83,61.5z M68.5,81.2c0,3.5-2.9,6.4-6.5,6.4c0,0,0,0,0,0H35.9c-3.7,0-7-3-7-6.4V56.9
		l19.5-19.5l20.1,20.1V81.2z"/>
</g>
</svg>
