<svg id="Layer_1" data-name="Layer 1" xmlns="http://www.w3.org/2000/svg" viewBox="0 0 117.5 117.5"><defs><style>.cls-1{fill:#00958e;}.cls-2{fill:#e8a21e;}.cls-3{fill:#138100;}.cls-4{fill:#e82c1e;}.cls-5{fill:#1f4a96;}.cls-6{fill:#9e297a;}.cls-7{fill:#f68a8e;}.cls-8{fill:#9c5840;}</style></defs><path class="cls-1" d="M58.75,58.75H.5a58.25,58.25,0,0,1,116.5,0Z"/><path class="cls-2" d="M58.75,58.75H.5a58.25,58.25,0,0,1,17.07-41.2Z"/><path class="cls-3" d="M58.74,58.75,17.55,17.56h0A58.28,58.28,0,0,1,58.75.5Z"/><path class="cls-4" d="M58.75,58.72,17.57,99.93A58.33,58.33,0,0,1,.5,58.72Z"/><path class="cls-5" d="M58.71,58.75l0,58.25A58.22,58.22,0,0,1,17.52,99.94Z"/><path class="cls-6" d="M58.75,58.75,100,99.93A58.22,58.22,0,0,1,58.75,117Z"/><path class="cls-7" d="M58.71,58.74l58.25,0A58.27,58.27,0,0,1,99.9,99.93Z"/><path class="cls-8" d="M58.71,58.75l41.17-41.2A58.24,58.24,0,0,1,117,58.75Z"/></svg>