<svg id="Layer_1" data-name="Layer 1" xmlns="http://www.w3.org/2000/svg" viewBox="0 0 117.5 117.5"><defs><style>.cls-1{fill:#00958e;}.cls-2{fill:#e8a21e;}.cls-3{fill:#f68a8e;}.cls-4{fill:#e82c1e;}.cls-5{fill:#9e297a;}.cls-6{fill:#1f4a96;}</style></defs><path class="cls-1" d="M58.75,58.56,29.55,8.35A58.08,58.08,0,1,1,.67,58.56Z"/><path class="cls-2" d="M58.75,58.82l-58.08,0A58.08,58.08,0,0,1,29.81,8.46Z"/><path class="cls-3" d="M58.75,58.82,87.83,8.54a58.09,58.09,0,0,1,29,50.4Z"/><path class="cls-4" d="M58.75,58.94,29.67,109.22a58.09,58.09,0,0,1-29-50.4Z"/><path class="cls-5" d="M58.75,58.94l58.08,0A58.08,58.08,0,0,1,87.69,109.3Z"/><path class="cls-6" d="M58.68,58.94l29.15,50.24a58.11,58.11,0,0,1-58.16.08Z"/></svg>