<svg id="Layer_1" data-name="Layer 1" xmlns="http://www.w3.org/2000/svg" viewBox="0 0 117.5 117.5"><defs><style>.cls-1{fill:#00958e;}.cls-2{fill:#e8a21e;}.cls-3{fill:#138100;}.cls-4{fill:#e82c1e;}.cls-5{fill:#1f4a96;}.cls-6{fill:#9e297a;}.cls-7{fill:#f68a8e;}.cls-8{fill:#9c5840;}.cls-9{fill:#fe6d32;}</style></defs><path class="cls-1" d="M58.82,59.24H.57a58.25,58.25,0,0,1,116.5,0Z"/><path class="cls-2" d="M58.82,59.24H.57A58.24,58.24,0,0,1,17.64,18.05Z"/><path class="cls-3" d="M58.81,59.25,17.61,18.06h0A58.25,58.25,0,0,1,58.82,1Z"/><path class="cls-4" d="M58.82,59.22l-41.18,41.2A58.17,58.17,0,0,1,.57,59.22Z"/><path class="cls-5" d="M58.77,59.25l0,58.25a58.27,58.27,0,0,1-41.22-17.06Z"/><path class="cls-6" d="M58.82,59.25,100,100.42a58.24,58.24,0,0,1-41.2,17.08Z"/><path class="cls-7" d="M58.82,59.25l53.9,22.3a58.16,58.16,0,0,1-21.43,26.16Z"/><path class="cls-8" d="M58.77,59.25,100,18a58.22,58.22,0,0,1,16,29.82Z"/><path class="cls-9" d="M58.82,59.25,116,47.86a58.41,58.41,0,0,1-3.3,33.66Z"/></svg>