<svg id="Grayscale" xmlns="http://www.w3.org/2000/svg" viewBox="0 0 1920 1080"><defs><style>.cls-1{fill:#1a1a1a;}.cls-2{fill:#fff;}.cls-3{fill:#404040;}</style></defs><path class="cls-1" d="M1545.45,861a178.05,178.05,0,0,0-47.12-166.56,176.19,176.19,0,0,0-125.4-51.94,178.64,178.64,0,0,0-41.18,4.85,156.82,156.82,0,0,1,13.07-14.86,152.36,152.36,0,0,1,216.26.81c58.5,59.35,58.17,155.61-.73,214.58A151.35,151.35,0,0,1,1545.45,861Z"/><path d="M1452.55,600.39a138.86,138.86,0,0,1,99.63,41.7c49.73,50.46,53.15,130,10.42,184.47A189.75,189.75,0,0,0,1372.93,630c-2.21,0-4.43,0-6.64.12a138.77,138.77,0,0,1,86.26-29.75m0-25a165,165,0,0,0-149.4,95.08,164.91,164.91,0,0,1,219.18,219.18,164.63,164.63,0,0,0,46.87-32.91c63.73-63.81,64.09-168,.79-232.2a164.36,164.36,0,0,0-117.44-49.15Z"/><path class="cls-2" d="M1521.07,642.29A45.94,45.94,0,1,1,1567,596.36,46,46,0,0,1,1521.07,642.29Z"/><path class="cls-3" d="M1521.07,555.42a40.94,40.94,0,1,1-40.94,40.94,41,41,0,0,1,40.94-40.94m0-10A50.94,50.94,0,1,0,1572,596.36a50.94,50.94,0,0,0-50.93-50.94Z"/><path class="cls-2" d="M1134.38,640.16a45.94,45.94,0,1,1,45.94-45.94A46,46,0,0,1,1134.38,640.16Z"/><path class="cls-3" d="M1134.38,553.29a40.94,40.94,0,1,1-40.93,40.93,41,41,0,0,1,40.93-40.93m0-10a50.94,50.94,0,1,0,50.94,50.93,50.93,50.93,0,0,0-50.94-50.93Z"/><ellipse class="cls-2" cx="1327.77" cy="569.24" rx="207.66" ry="245.32"/><path class="cls-3" d="M1327.77,333.92c109,0,197.65,105.57,197.65,235.32s-88.67,235.32-197.65,235.32S1130.11,699,1130.11,569.24s88.67-235.32,197.66-235.32m0-20c-120.21,0-217.66,114.31-217.66,255.32s97.45,255.32,217.66,255.32,217.65-114.31,217.65-255.32S1448,313.92,1327.77,313.92Z"/><path class="cls-1" d="M1124.1,462.39c0-124.08,91.36-225,203.67-225s203.66,100.94,203.66,225V498c-38.88-85.58-116.35-143-203.66-143S1163,412.46,1124.1,498Z"/><path d="M1327.77,249.87c50.61,0,98.33,21.8,134.36,61.4a214.32,214.32,0,0,1,41.49,67.65,230.21,230.21,0,0,1,15,70.87c-44.76-65.63-114.19-107.29-190.84-107.29s-146.08,41.66-190.84,107.29a229.92,229.92,0,0,1,15-70.87,214.3,214.3,0,0,1,41.48-67.65c36-39.6,83.75-61.4,134.37-61.4m0-25h0c-119.39,0-216.17,106.34-216.17,237.52v113.1q0,7,.37,13.86c14-125.19,105.26-221.85,215.8-221.85s201.81,96.66,215.79,221.85q.36-6.89.37-13.86V462.39c0-131.18-96.78-237.52-216.16-237.52Z"/><path class="cls-3" d="M1356.94,598.62a31.05,31.05,0,0,1-61.42,0,31.59,31.59,0,0,0-.34,4.59,31.05,31.05,0,0,0,31,31h.88a31.24,31.24,0,0,0,29.77-26.06,30.75,30.75,0,0,0,.06-9.57Z"/><rect class="cls-3" x="1173.59" y="516.42" width="105.76" height="19.56" rx="9.78" transform="translate(135.95 -243.14) rotate(11.98)"/><rect class="cls-3" x="1370.16" y="516.42" width="105.76" height="19.56" rx="9.78" transform="matrix(0.97, -0.26, 0.26, 0.97, -87.15, 380.41)"/><path class="cls-1" d="M1232.44,566.81A106.87,106.87,0,0,1,1287,581.68a1.75,1.75,0,0,0,2.14-2.75,81.38,81.38,0,0,0-113.33,0,1.75,1.75,0,0,0,2.14,2.75A106.87,106.87,0,0,1,1232.44,566.81Z"/><path d="M1232.44,556a81.12,81.12,0,0,0-56.67,23,1.76,1.76,0,0,0,1.22,3,1.74,1.74,0,0,0,.92-.27,107.4,107.4,0,0,1,109,0,1.75,1.75,0,0,0,2.14-2.75,81.08,81.08,0,0,0-56.66-23Z"/><path class="cls-1" d="M1168.65,564.22l7.55,17.08a1,1,0,0,0,1.67.31l9.53-9.53a1,1,0,0,0-.31-1.67L1170,562.86A1,1,0,0,0,1168.65,564.22Z"/><path d="M1169.59,562.77a1,1,0,0,0-.94,1.45l7.55,17.08a1,1,0,0,0,1.67.31l9.53-9.53a1,1,0,0,0-.31-1.67L1170,562.86a1.1,1.1,0,0,0-.42-.09Z"/><path class="cls-1" d="M1423,566.81a106.87,106.87,0,0,0-54.53,14.87,1.75,1.75,0,0,1-2.14-2.75,81.38,81.38,0,0,1,113.33,0,1.75,1.75,0,0,1-2.14,2.75A106.87,106.87,0,0,0,1423,566.81Z"/><path d="M1423,556a81.12,81.12,0,0,0-56.67,23,1.76,1.76,0,0,0,1.22,3,1.74,1.74,0,0,0,.92-.27,107.4,107.4,0,0,1,109,0,1.74,1.74,0,0,0,.92.27,1.76,1.76,0,0,0,1.22-3A81.08,81.08,0,0,0,1423,556Z"/><path class="cls-1" d="M1486.83,564.22l-7.55,17.08a1,1,0,0,1-1.68.31l-9.53-9.53a1,1,0,0,1,.32-1.67l17.08-7.55A1,1,0,0,1,1486.83,564.22Z"/><path d="M1485.89,562.77a1.06,1.06,0,0,0-.42.09l-17.08,7.55a1,1,0,0,0-.32,1.67l9.53,9.53a1,1,0,0,0,.73.3,1,1,0,0,0,1-.61l7.55-17.08a1,1,0,0,0-.94-1.45Z"/><path class="cls-2" d="M1214.4,379.65A111.11,111.11,0,0,0,1229.1,435a64.28,64.28,0,0,1,0-110.73A111.1,111.1,0,0,0,1214.4,379.65Z"/><path class="cls-1" d="M733.68,860.73a178.05,178.05,0,0,0-47.12-166.56,176.19,176.19,0,0,0-125.4-51.94A178.64,178.64,0,0,0,520,647.08a155.42,155.42,0,0,1,13.07-14.86,152.36,152.36,0,0,1,216.26.81c58.5,59.35,58.17,155.61-.73,214.59A152.56,152.56,0,0,1,733.68,860.73Z"/><path d="M640.78,600.1a138.86,138.86,0,0,1,99.63,41.7c49.73,50.46,53.15,130,10.42,184.47A189.75,189.75,0,0,0,561.16,629.73c-2.21,0-4.43,0-6.64.12a138.75,138.75,0,0,1,86.26-29.75m0-25a165,165,0,0,0-149.4,95.08A164.91,164.91,0,0,1,710.56,889.36a164.43,164.43,0,0,0,46.87-32.91c63.73-63.81,64.09-168,.79-232.2A164.4,164.4,0,0,0,640.78,575.1Z"/><circle class="cls-2" cx="709.3" cy="596.07" r="45.94" transform="translate(-174.11 316.81) rotate(-22.5)"/><path class="cls-3" d="M709.3,555.13a40.94,40.94,0,1,1-40.94,40.94,41,41,0,0,1,40.94-40.94m0-10a50.94,50.94,0,1,0,50.93,50.94,50.94,50.94,0,0,0-50.93-50.94Z"/><circle class="cls-2" cx="322.61" cy="593.94" r="45.94" transform="translate(-325.49 402.08) rotate(-45)"/><path class="cls-3" d="M322.61,553a40.94,40.94,0,1,1-40.94,40.94A41,41,0,0,1,322.61,553m0-10a50.94,50.94,0,1,0,50.94,50.94A50.94,50.94,0,0,0,322.61,543Z"/><ellipse class="cls-2" cx="516" cy="568.95" rx="207.66" ry="245.32"/><path class="cls-3" d="M516,333.63c109,0,197.65,105.57,197.65,235.32S625,804.27,516,804.27,318.34,698.71,318.34,569,407,333.63,516,333.63m0-20c-120.21,0-217.66,114.31-217.66,255.32S395.79,824.27,516,824.27,733.65,710,733.65,569,636.2,313.63,516,313.63Z"/><path class="cls-1" d="M719.66,497.75c-38.88-85.58-116.35-143-203.66-143s-164.79,57.46-203.67,143V462.1c0-124.07,91.36-225,203.67-225S719.66,338,719.66,462.1Z"/><path d="M516,249.58c50.61,0,98.33,21.8,134.36,61.4a214.32,214.32,0,0,1,41.49,67.65,230.21,230.21,0,0,1,15,70.87C662.08,383.87,592.65,342.21,516,342.21S369.92,383.87,325.16,449.5a229.63,229.63,0,0,1,15-70.87A214.3,214.3,0,0,1,381.63,311c36-39.6,83.75-61.4,134.37-61.4m0-25h0c-119.39,0-216.17,106.34-216.17,237.53V575.2q0,7,.37,13.86c14-125.19,105.26-221.85,215.8-221.85s201.81,96.66,215.79,221.85q.36-6.88.37-13.86V462.11c0-131.19-96.78-237.53-216.16-237.53Z"/><path class="cls-3" d="M545.17,616.44a31.05,31.05,0,0,1-61.42,0,31.59,31.59,0,0,0-.34,4.59,31,31,0,0,0,31.05,31.05h.88A31.24,31.24,0,0,0,545.11,626a30.75,30.75,0,0,0,.06-9.57Z"/><path class="cls-1" d="M516,706.05a224.92,224.92,0,0,1,47.46,5,2.56,2.56,0,0,0,1.33-4.93,155.39,155.39,0,0,0-97.59,0,2.56,2.56,0,0,0,1.34,4.93A224.78,224.78,0,0,1,516,706.05Z"/><path d="M516,698.3a154.38,154.38,0,0,0-48.8,7.86,2.56,2.56,0,0,0,.71,5,3.57,3.57,0,0,0,.63-.07,226,226,0,0,1,94.92,0,3.37,3.37,0,0,0,.62.07,2.56,2.56,0,0,0,.71-5A154.36,154.36,0,0,0,516,698.3Z"/><path class="cls-1" d="M1327.77,682.24a224.92,224.92,0,0,1,47.46,5,2.56,2.56,0,0,0,1.33-4.93,155.39,155.39,0,0,0-97.59,0,2.56,2.56,0,0,0,1.34,4.93A224.78,224.78,0,0,1,1327.77,682.24Z"/><path d="M1327.77,674.48a154.38,154.38,0,0,0-48.8,7.86,2.56,2.56,0,0,0,.71,5,2.83,2.83,0,0,0,.63-.07,226.42,226.42,0,0,1,94.92,0,2.74,2.74,0,0,0,.62.07,2.56,2.56,0,0,0,.71-5,154.36,154.36,0,0,0-48.79-7.86Z"/><rect class="cls-3" x="361.82" y="501.99" width="105.76" height="19.56" rx="9.78"/><rect class="cls-3" x="558.39" y="501.99" width="105.76" height="19.56" rx="9.78"/><path class="cls-1" d="M428.42,590.86a14.4,14.4,0,1,1,14.4-14.4A14.42,14.42,0,0,1,428.42,590.86Z"/><path d="M428.42,574.56a1.9,1.9,0,1,1-1.9,1.9,1.91,1.91,0,0,1,1.9-1.9m0-25a26.9,26.9,0,1,0,26.9,26.9,26.9,26.9,0,0,0-26.9-26.9Z"/><path class="cls-1" d="M420.72,557.29a106.87,106.87,0,0,1,54.53,14.87,1.76,1.76,0,0,0,2.14-2.76,81.4,81.4,0,0,0-113.33,0,1.76,1.76,0,0,0,2.14,2.76A106.87,106.87,0,0,1,420.72,557.29Z"/><path d="M420.72,546.44a81.13,81.13,0,0,0-56.66,23,1.77,1.77,0,0,0,1.22,3,1.74,1.74,0,0,0,.92-.27,107.4,107.4,0,0,1,109.05,0,1.74,1.74,0,0,0,.92.27,1.77,1.77,0,0,0,1.22-3,81.14,81.14,0,0,0-56.67-23Z"/><path class="cls-1" d="M356.94,554.7l7.55,17.08a1,1,0,0,0,1.67.31l9.53-9.53a1,1,0,0,0-.31-1.67l-17.08-7.55A1,1,0,0,0,356.94,554.7Z"/><path d="M357.87,553.25a1,1,0,0,0-.93,1.45l7.55,17.08a1,1,0,0,0,1.67.31l9.53-9.53a1,1,0,0,0-.31-1.67l-17.08-7.55a1.14,1.14,0,0,0-.43-.09Z"/><circle class="cls-2" cx="420.72" cy="566.41" r="6.02"/><path class="cls-3" d="M426.75,610.78a66.31,66.31,0,0,1-18.21-2.55,41,41,0,0,0,36.42,0A66.37,66.37,0,0,1,426.75,610.78Z"/><path class="cls-1" d="M603.57,589.29A14.4,14.4,0,1,1,618,574.9,14.41,14.41,0,0,1,603.57,589.29Z"/><path d="M603.57,573a1.9,1.9,0,1,1-1.89,1.9,1.9,1.9,0,0,1,1.89-1.9m0-25a26.9,26.9,0,1,0,26.9,26.9,26.89,26.89,0,0,0-26.9-26.9Z"/><path class="cls-1" d="M611.27,555.73a106.78,106.78,0,0,0-54.53,14.87,1.76,1.76,0,0,1-2.14-2.76,81.38,81.38,0,0,1,113.33,0,1.76,1.76,0,0,1-2.14,2.76A106.77,106.77,0,0,0,611.27,555.73Z"/><path d="M611.27,544.87a81.17,81.17,0,0,0-56.67,23,1.77,1.77,0,0,0,1.22,3,1.83,1.83,0,0,0,.92-.27,107.4,107.4,0,0,1,109,0,1.83,1.83,0,0,0,.92.27,1.77,1.77,0,0,0,1.22-3,81.12,81.12,0,0,0-56.66-23Z"/><path class="cls-1" d="M675.06,553.14l-7.55,17.08a1,1,0,0,1-1.68.31L656.3,561a1,1,0,0,1,.32-1.67l17.08-7.55A1,1,0,0,1,675.06,553.14Z"/><path d="M674.12,551.69a.91.91,0,0,0-.42.09l-17.08,7.55a1,1,0,0,0-.32,1.67l9.53,9.53a1.06,1.06,0,0,0,.73.3,1,1,0,0,0,1-.61l7.55-17.08a1,1,0,0,0-.94-1.45Z"/><circle class="cls-2" cx="597.55" cy="563.28" r="6.02"/><path class="cls-3" d="M603.57,610.78a66.37,66.37,0,0,1-18.21-2.55,41,41,0,0,0,36.42,0A66.31,66.31,0,0,1,603.57,610.78Z"/><path class="cls-2" d="M402.62,379.37a111.1,111.1,0,0,0,14.71,55.36,64.28,64.28,0,0,1,0-110.73A111.11,111.11,0,0,0,402.62,379.37Z"/></svg>