<?xml version="1.0" encoding="utf-8"?>
<!-- Generator: Adobe Illustrator 25.4.1, SVG Export Plug-In . SVG Version: 6.00 Build 0)  -->
<svg version="1.1" id="Layer_1" xmlns="http://www.w3.org/2000/svg" xmlns:xlink="http://www.w3.org/1999/xlink" x="0px" y="0px"
	 viewBox="0 0 1920 1080" style="enable-background:new 0 0 1920 1080;" xml:space="preserve">
<style type="text/css">
	.st0{fill:#1A1A1A;}
	.st1{fill:#FFFFFF;}
	.st2{fill:#404040;}
	.st3{fill:#333333;}
</style>
<g>
	<path class="st0" d="M1545.45,861.02c13.98-59.02-3.14-122.59-47.12-166.56c-33.5-33.5-78.03-51.94-125.4-51.94
		c-13.83,0-27.7,1.65-41.18,4.85c4.01-5.2,8.37-10.16,13.07-14.86c28.78-28.78,67.04-44.62,107.73-44.62
		c41.11,0,79.66,16.13,108.53,45.43c58.5,59.35,58.17,155.61-0.73,214.59C1555.64,852.62,1550.67,857,1545.45,861.02z"/>
	<path d="M1452.55,600.39c37.74,0,73.13,14.81,99.63,41.7c49.73,50.46,53.15,129.99,10.42,184.46
		c1.72-51.59-17.54-103.05-55.43-140.93c-35.86-35.86-83.53-55.61-134.24-55.6c-2.21,0-4.43,0.04-6.64,0.12
		C1390.81,610.85,1420.87,600.39,1452.55,600.39 M1452.55,575.39c-42.19,0-84.38,16.09-116.57,48.29
		c-13.98,13.98-24.93,29.86-32.83,46.79c22.05-10.3,45.92-15.45,69.78-15.45c42.19,0,84.37,16.09,116.56,48.28
		c50.4,50.4,61.34,125.3,32.83,186.35c16.97-7.92,32.87-18.89,46.87-32.91c63.73-63.81,64.09-167.97,0.79-232.2
		C1537.69,591.77,1495.12,575.39,1452.55,575.39L1452.55,575.39z"/>
</g>
<g>
	<path class="st1" d="M1521.07,642.29c-25.33,0-45.94-20.61-45.94-45.94s20.61-45.94,45.94-45.94s45.94,20.61,45.94,45.94
		S1546.4,642.29,1521.07,642.29z"/>
	<path class="st2" d="M1521.07,555.42c22.57,0,40.94,18.36,40.94,40.94c0,22.57-18.36,40.94-40.94,40.94s-40.94-18.36-40.94-40.94
		C1480.13,573.79,1498.49,555.42,1521.07,555.42 M1521.07,545.42c-28.13,0-50.94,22.8-50.94,50.94c0,28.13,22.8,50.94,50.94,50.94
		s50.94-22.8,50.94-50.94C1572,568.23,1549.2,545.42,1521.07,545.42L1521.07,545.42z"/>
</g>
<g>
	<path class="st1" d="M1134.38,640.16c-25.33,0-45.94-20.61-45.94-45.94s20.61-45.94,45.94-45.94s45.94,20.61,45.94,45.94
		S1159.71,640.16,1134.38,640.16z"/>
	<path class="st2" d="M1134.38,553.29c22.57,0,40.94,18.36,40.94,40.94s-18.36,40.94-40.94,40.94s-40.94-18.36-40.94-40.94
		S1111.81,553.29,1134.38,553.29 M1134.38,543.29c-28.13,0-50.94,22.8-50.94,50.94s22.8,50.94,50.94,50.94s50.94-22.8,50.94-50.94
		S1162.51,543.29,1134.38,543.29L1134.38,543.29z"/>
</g>
<g>
	<ellipse class="st1" cx="1327.77" cy="569.24" rx="207.66" ry="245.32"/>
	<path class="st2" d="M1327.77,333.92c108.99,0,197.66,105.56,197.66,235.32s-88.67,235.32-197.66,235.32
		S1130.11,699,1130.11,569.24S1218.78,333.92,1327.77,333.92 M1327.77,313.92c-120.21,0-217.66,114.31-217.66,255.32
		s97.45,255.32,217.66,255.32s217.66-114.31,217.66-255.32S1447.97,313.92,1327.77,313.92L1327.77,313.92z"/>
</g>
<g>
	<path class="st0" d="M1124.1,462.39c0-124.08,91.37-225.03,203.67-225.03c112.3,0,203.67,100.95,203.67,225.03v35.65
		C1492.55,412.46,1415.08,355,1327.77,355c-87.32,0-164.78,57.45-203.67,143.04V462.39z"/>
	<path d="M1327.77,249.87c50.61,0,98.33,21.8,134.36,61.4c17.76,19.51,31.72,42.27,41.48,67.65c8.68,22.56,13.71,46.35,14.99,70.87
		c-44.76-65.63-114.19-107.29-190.84-107.29s-146.08,41.66-190.84,107.29c1.28-24.52,6.31-48.31,14.99-70.87
		c9.77-25.38,23.73-48.14,41.48-67.65C1229.43,271.67,1277.15,249.87,1327.77,249.87 M1327.77,224.87L1327.77,224.87
		c-119.39,0-216.17,106.34-216.17,237.53v113.1c0,4.65,0.14,9.27,0.38,13.86c13.98-125.19,105.26-221.84,215.79-221.84
		s201.82,96.66,215.79,221.84c0.24-4.59,0.38-9.2,0.38-13.86v-113.1C1543.93,331.21,1447.15,224.87,1327.77,224.87L1327.77,224.87z"
		/>
</g>
<g>
	<path class="st2" d="M1356.94,616.73c-2.22,14.97-15.12,26.46-30.71,26.46c-15.59,0-28.49-11.49-30.71-26.46
		c-0.22,1.5-0.34,3.03-0.34,4.59c0,17.15,13.9,31.05,31.05,31.05c0.29,0,0.58,0,0.88-0.01c14.77-0.41,27.4-11.48,29.77-26.06
		C1357.42,623,1357.4,619.79,1356.94,616.73L1356.94,616.73z"/>
</g>
<path class="st2" d="M1269.57,488.86h-86.2c-5.4,0-9.78-4.38-9.78-9.78v0c0-5.4,4.38-9.78,9.78-9.78h86.2c5.4,0,9.78,4.38,9.78,9.78
	v0C1279.35,484.48,1274.97,488.86,1269.57,488.86z"/>
<path class="st2" d="M1466.14,488.86h-86.2c-5.4,0-9.78-4.38-9.78-9.78v0c0-5.4,4.38-9.78,9.78-9.78h86.2c5.4,0,9.78,4.38,9.78,9.78
	v0C1475.92,484.48,1471.54,488.86,1466.14,488.86z"/>
<g>
	<path class="st0" d="M1240.19,591.14c-7.94,0-14.4-6.46-14.4-14.4s6.46-14.4,14.4-14.4s14.4,6.46,14.4,14.4
		S1248.13,591.14,1240.19,591.14z"/>
	<g>
		<path d="M1240.19,574.85c1.05,0,1.9,0.85,1.9,1.9s-0.85,1.9-1.9,1.9c-1.05,0-1.9-0.85-1.9-1.9S1239.14,574.85,1240.19,574.85
			 M1240.19,549.85c-14.85,0-26.9,12.04-26.9,26.9c0,14.85,12.04,26.9,26.9,26.9s26.9-12.04,26.9-26.9
			C1267.09,561.89,1255.04,549.85,1240.19,549.85L1240.19,549.85z"/>
	</g>
</g>
<g>
	<g>
		<path class="st0" d="M1232.44,541.15c19.91,0,38.55,5.42,54.52,14.87c1.79,1.06,3.63-1.31,2.14-2.76
			c-14.66-14.21-34.64-22.97-56.67-22.97c-22.03,0-42.01,8.75-56.67,22.97c-1.49,1.45,0.35,3.82,2.14,2.76
			C1193.89,546.57,1212.53,541.15,1232.44,541.15z"/>
		<path d="M1232.44,530.29c-22.03,0-42.01,8.75-56.67,22.97c-1.23,1.2-0.19,3.02,1.22,3.02c0.3,0,0.61-0.08,0.92-0.26
			c15.98-9.45,34.62-14.87,54.52-14.87c19.91,0,38.55,5.42,54.52,14.87c0.31,0.18,0.62,0.26,0.92,0.26c1.41,0,2.46-1.83,1.22-3.02
			C1274.45,539.05,1254.47,530.29,1232.44,530.29L1232.44,530.29z"/>
	</g>
	<g>
		<path class="st0" d="M1168.65,538.56l7.55,17.08c0.29,0.66,1.16,0.82,1.67,0.31l9.53-9.53c0.51-0.51,0.35-1.38-0.31-1.67
			l-17.08-7.55C1169.15,536.82,1168.27,537.69,1168.65,538.56z"/>
		<path d="M1169.59,537.11c-0.69,0-1.26,0.73-0.94,1.45l7.55,17.08c0.18,0.4,0.56,0.61,0.94,0.61c0.26,0,0.52-0.1,0.73-0.3
			l9.53-9.53c0.51-0.51,0.35-1.38-0.31-1.67l-17.08-7.55C1169.87,537.13,1169.72,537.11,1169.59,537.11L1169.59,537.11z"/>
	</g>
</g>
<g>
	<circle class="st1" cx="1232.5" cy="566.69" r="6.02"/>
</g>
<g>
	<path class="st0" d="M1415.34,589.58c-7.94,0-14.4-6.46-14.4-14.4s6.46-14.4,14.4-14.4s14.4,6.46,14.4,14.4
		S1423.28,589.58,1415.34,589.58z"/>
	<g>
		<path d="M1415.34,573.29c1.05,0,1.9,0.85,1.9,1.9s-0.85,1.9-1.9,1.9s-1.9-0.85-1.9-1.9S1414.3,573.29,1415.34,573.29
			 M1415.34,548.29c-14.85,0-26.9,12.04-26.9,26.9c0,14.85,12.04,26.9,26.9,26.9s26.9-12.04,26.9-26.9
			C1442.24,560.33,1430.2,548.29,1415.34,548.29L1415.34,548.29z"/>
	</g>
</g>
<g>
	<g>
		<path class="st0" d="M1423.04,541.15c-19.91,0-38.55,5.42-54.52,14.87c-1.79,1.06-3.63-1.31-2.14-2.76
			c14.66-14.21,34.64-22.97,56.67-22.97c22.03,0,42.01,8.75,56.67,22.97c1.49,1.45-0.35,3.82-2.14,2.76
			C1461.58,546.57,1442.94,541.15,1423.04,541.15z"/>
		<path d="M1423.04,530.29c-22.03,0-42.01,8.75-56.67,22.97c-1.23,1.2-0.19,3.02,1.22,3.02c0.3,0,0.61-0.08,0.92-0.26
			c15.98-9.45,34.62-14.87,54.52-14.87c19.91,0,38.55,5.42,54.52,14.87c0.31,0.18,0.62,0.26,0.92,0.26c1.41,0,2.46-1.83,1.22-3.02
			C1465.05,539.05,1445.07,530.29,1423.04,530.29L1423.04,530.29z"/>
	</g>
	<g>
		<path class="st0" d="M1486.83,538.56l-7.55,17.08c-0.29,0.66-1.16,0.82-1.67,0.31l-9.53-9.53c-0.51-0.51-0.35-1.38,0.31-1.67
			l17.08-7.55C1486.33,536.82,1487.21,537.69,1486.83,538.56z"/>
		<path d="M1485.89,537.11c-0.14,0-0.28,0.03-0.42,0.09l-17.08,7.55c-0.66,0.29-0.82,1.16-0.31,1.67l9.53,9.53
			c0.21,0.21,0.47,0.3,0.73,0.3c0.39,0,0.77-0.22,0.94-0.61l7.55-17.08C1487.14,537.84,1486.58,537.11,1485.89,537.11
			L1485.89,537.11z"/>
	</g>
</g>
<g>
	<circle class="st1" cx="1409.32" cy="563.57" r="6.02"/>
</g>
<path class="st1" d="M1214.4,379.65c0,20.15,5.37,39.04,14.71,55.36c-18.92-11.19-31.62-31.79-31.62-55.36
	c0-23.58,12.7-44.18,31.62-55.36C1219.76,340.61,1214.4,359.5,1214.4,379.65z"/>
<g>
	<path class="st0" d="M733.68,860.73c13.98-59.02-3.14-122.59-47.12-166.56c-33.5-33.5-78.03-51.94-125.4-51.94
		c-13.83,0-27.7,1.65-41.18,4.85c4.01-5.2,8.37-10.16,13.07-14.86c28.78-28.78,67.04-44.62,107.73-44.62
		c41.11,0,79.66,16.13,108.53,45.43c58.5,59.35,58.17,155.62-0.73,214.59C743.88,852.33,738.9,856.71,733.68,860.73z"/>
	<path d="M640.78,600.1c37.74,0,73.13,14.81,99.63,41.7c49.73,50.46,53.15,129.99,10.42,184.46
		c1.72-51.59-17.54-103.05-55.43-140.93c-35.86-35.86-83.53-55.61-134.24-55.6c-2.21,0-4.43,0.04-6.64,0.12
		C579.04,610.56,609.1,600.1,640.78,600.1 M640.78,575.1c-42.19,0-84.38,16.09-116.57,48.28c-13.98,13.98-24.93,29.86-32.83,46.79
		c22.05-10.3,45.92-15.45,69.78-15.45c42.19,0,84.37,16.09,116.56,48.28c50.4,50.4,61.34,125.3,32.83,186.35
		c16.97-7.92,32.87-18.89,46.87-32.91c63.73-63.81,64.09-167.97,0.79-232.2C725.92,591.49,683.35,575.1,640.78,575.1L640.78,575.1z"
		/>
</g>
<g>
	
		<ellipse transform="matrix(0.1602 -0.9871 0.9871 0.1602 7.306 1200.7278)" class="st1" cx="709.3" cy="596.07" rx="45.94" ry="45.94"/>
	<path class="st2" d="M709.3,555.13c22.57,0,40.94,18.36,40.94,40.94s-18.36,40.94-40.94,40.94c-22.57,0-40.94-18.36-40.94-40.94
		S686.72,555.13,709.3,555.13 M709.3,545.13c-28.13,0-50.94,22.8-50.94,50.94s22.8,50.94,50.94,50.94
		c28.13,0,50.94-22.8,50.94-50.94S737.43,545.13,709.3,545.13L709.3,545.13z"/>
</g>
<g>
	<path class="st1" d="M322.61,639.87c-25.33,0-45.94-20.61-45.94-45.94S297.28,548,322.61,548c25.33,0,45.94,20.61,45.94,45.94
		S347.94,639.87,322.61,639.87z"/>
	<path class="st2" d="M322.61,553c22.57,0,40.94,18.36,40.94,40.94c0,22.57-18.36,40.94-40.94,40.94
		c-22.57,0-40.94-18.36-40.94-40.94C281.67,571.36,300.04,553,322.61,553 M322.61,543c-28.13,0-50.94,22.8-50.94,50.94
		c0,28.13,22.8,50.94,50.94,50.94c28.13,0,50.94-22.8,50.94-50.94C373.55,565.8,350.74,543,322.61,543L322.61,543z"/>
</g>
<g>
	<ellipse class="st1" cx="516" cy="568.95" rx="207.66" ry="245.32"/>
	<path class="st2" d="M516,333.63c108.99,0,197.66,105.56,197.66,235.32S624.98,804.27,516,804.27S318.34,698.71,318.34,568.95
		S407.01,333.63,516,333.63 M516,313.63c-120.21,0-217.66,114.31-217.66,255.32S395.79,824.27,516,824.27
		s217.66-114.31,217.66-255.32S636.2,313.63,516,313.63L516,313.63z"/>
</g>
<g>
	<path class="st0" d="M719.66,497.75C680.78,412.17,603.31,354.71,516,354.71c-87.32,0-164.78,57.45-203.67,143.04V462.1
		c0-124.08,91.37-225.02,203.67-225.02c112.3,0,203.67,100.95,203.67,225.02V497.75z"/>
	<path d="M516,249.58c50.61,0,98.33,21.8,134.36,61.4c17.76,19.51,31.72,42.27,41.48,67.65c8.68,22.56,13.71,46.35,14.99,70.87
		C662.08,383.87,592.65,342.21,516,342.21S369.92,383.87,325.16,449.5c1.28-24.52,6.31-48.31,14.99-70.87
		c9.77-25.38,23.73-48.14,41.48-67.65C417.66,271.38,465.38,249.58,516,249.58 M516,224.58L516,224.58
		c-119.39,0-216.17,106.34-216.17,237.53v113.1c0,4.65,0.14,9.27,0.38,13.86C314.18,463.87,405.46,367.21,516,367.21
		s201.82,96.66,215.79,221.84c0.24-4.59,0.38-9.2,0.38-13.86v-113.1C732.16,330.92,635.38,224.58,516,224.58L516,224.58z"/>
</g>
<g>
	<path class="st2" d="M545.17,616.44c-2.22,14.97-15.12,26.46-30.71,26.46s-28.49-11.49-30.71-26.46c-0.22,1.5-0.34,3.03-0.34,4.59
		c0,17.15,13.9,31.05,31.05,31.05c0.29,0,0.58,0,0.88-0.01c14.77-0.41,27.4-11.48,29.77-26.06
		C545.65,622.71,545.63,619.5,545.17,616.44L545.17,616.44z"/>
</g>
<g>
	<path class="st0" d="M516,706.05c16.28,0,32.16,1.74,47.46,5.03c3.18,0.68,4.42-3.9,1.34-4.93c-15.34-5.1-31.74-7.86-48.8-7.86
		c-17.05,0-33.46,2.76-48.8,7.86c-3.08,1.03-1.84,5.61,1.34,4.93C483.83,707.79,499.71,706.05,516,706.05z"/>
	<path d="M516,698.3c-17.05,0-33.46,2.76-48.8,7.86c-2.87,0.95-1.99,5,0.71,5c0.2,0,0.41-0.02,0.63-0.07
		c15.3-3.3,31.18-5.03,47.46-5.03c16.28,0,32.16,1.74,47.46,5.03c0.22,0.05,0.43,0.07,0.63,0.07c2.7,0,3.58-4.04,0.71-5
		C549.45,701.06,533.05,698.3,516,698.3L516,698.3z"/>
</g>
<path class="st2" d="M457.8,521.55h-86.2c-5.4,0-9.78-4.38-9.78-9.78l0,0c0-5.4,4.38-9.78,9.78-9.78h86.2c5.4,0,9.78,4.38,9.78,9.78
	l0,0C467.58,517.17,463.2,521.55,457.8,521.55z"/>
<path class="st2" d="M654.37,521.55h-86.2c-5.4,0-9.78-4.38-9.78-9.78l0,0c0-5.4,4.38-9.78,9.78-9.78h86.2
	c5.4,0,9.78,4.38,9.78,9.78l0,0C664.15,517.17,659.77,521.55,654.37,521.55z"/>
<g>
	<g>
		<g>
			<g>
				<path class="st0" d="M428.42,590.86c-7.94,0-14.4-6.46-14.4-14.4s6.46-14.4,14.4-14.4c7.94,0,14.4,6.46,14.4,14.4
					S436.36,590.86,428.42,590.86z"/>
				<g>
					<path d="M428.42,574.56c1.05,0,1.9,0.85,1.9,1.9s-0.85,1.9-1.9,1.9c-1.05,0-1.9-0.85-1.9-1.9S427.37,574.56,428.42,574.56
						 M428.42,549.56c-14.85,0-26.9,12.04-26.9,26.9s12.04,26.9,26.9,26.9s26.9-12.04,26.9-26.9S443.27,549.56,428.42,549.56
						L428.42,549.56z"/>
				</g>
			</g>
			<g>
				<path class="st0" d="M420.72,557.29c19.91,0,38.55,5.42,54.52,14.87c1.79,1.06,3.63-1.31,2.14-2.76
					c-14.66-14.21-34.64-22.97-56.67-22.97c-22.03,0-42.01,8.75-56.67,22.97c-1.49,1.45,0.35,3.82,2.14,2.76
					C382.18,562.72,400.82,557.29,420.72,557.29z"/>
				<path d="M420.72,546.44c-22.03,0-42.01,8.75-56.67,22.97c-1.23,1.2-0.19,3.02,1.22,3.02c0.3,0,0.61-0.08,0.92-0.26
					c15.98-9.45,34.62-14.87,54.52-14.87s38.55,5.42,54.52,14.87c0.31,0.18,0.62,0.26,0.92,0.26c1.41,0,2.46-1.83,1.22-3.02
					C462.73,555.19,442.76,546.44,420.72,546.44L420.72,546.44z"/>
			</g>
			<g>
				<path class="st0" d="M356.94,554.7l7.55,17.08c0.29,0.66,1.16,0.82,1.67,0.31l9.53-9.53c0.51-0.51,0.35-1.38-0.31-1.67
					l-17.08-7.55C357.43,552.96,356.56,553.84,356.94,554.7z"/>
				<path d="M357.87,553.25c-0.69,0-1.25,0.73-0.94,1.45l7.55,17.08c0.18,0.4,0.56,0.61,0.94,0.61c0.26,0,0.52-0.1,0.73-0.3
					l9.53-9.53c0.51-0.51,0.35-1.38-0.31-1.67l-17.08-7.55C358.15,553.28,358.01,553.25,357.87,553.25L357.87,553.25z"/>
			</g>
		</g>
		<g>
			<circle class="st1" cx="420.72" cy="566.41" r="6.02"/>
		</g>
	</g>
	<path class="st2" d="M426.75,610.78c-6.32,0-12.42-0.9-18.21-2.54c5.49,2.73,11.67,4.27,18.21,4.27c6.54,0,12.72-1.54,18.21-4.27
		C439.17,609.88,433.06,610.78,426.75,610.78z"/>
</g>
<g>
	<g>
		<g>
			<g>
				<path class="st0" d="M603.57,589.29c-7.94,0-14.4-6.46-14.4-14.4s6.46-14.4,14.4-14.4c7.94,0,14.4,6.46,14.4,14.4
					S611.51,589.29,603.57,589.29z"/>
				<g>
					<path d="M603.57,573c1.05,0,1.9,0.85,1.9,1.9s-0.85,1.9-1.9,1.9c-1.05,0-1.9-0.85-1.9-1.9S602.53,573,603.57,573 M603.57,548
						c-14.85,0-26.9,12.04-26.9,26.9c0,14.85,12.04,26.9,26.9,26.9c14.85,0,26.9-12.04,26.9-26.9
						C630.47,560.04,618.43,548,603.57,548L603.57,548z"/>
				</g>
			</g>
			<g>
				<path class="st0" d="M611.27,555.73c-19.91,0-38.55,5.42-54.52,14.87c-1.79,1.06-3.63-1.31-2.14-2.76
					c14.66-14.21,34.64-22.97,56.67-22.97c22.03,0,42.01,8.75,56.67,22.97c1.49,1.45-0.35,3.82-2.14,2.76
					C649.81,561.15,631.17,555.73,611.27,555.73z"/>
				<path d="M611.27,544.87c-22.03,0-42.01,8.75-56.67,22.97c-1.23,1.2-0.19,3.02,1.22,3.02c0.3,0,0.61-0.08,0.92-0.26
					c15.98-9.45,34.62-14.87,54.52-14.87c19.91,0,38.55,5.42,54.52,14.87c0.31,0.18,0.62,0.26,0.92,0.26c1.41,0,2.46-1.83,1.22-3.02
					C653.28,553.63,633.3,544.87,611.27,544.87L611.27,544.87z"/>
			</g>
			<g>
				<path class="st0" d="M675.06,553.14l-7.55,17.08c-0.29,0.66-1.16,0.82-1.67,0.31L656.3,561c-0.51-0.51-0.35-1.38,0.31-1.67
					l17.08-7.55C674.56,551.4,675.44,552.28,675.06,553.14z"/>
				<path d="M674.12,551.69c-0.14,0-0.28,0.03-0.42,0.09l-17.08,7.55c-0.66,0.29-0.82,1.16-0.31,1.67l9.53,9.53
					c0.21,0.21,0.47,0.3,0.73,0.3c0.39,0,0.77-0.22,0.94-0.61l7.55-17.08C675.37,552.42,674.81,551.69,674.12,551.69L674.12,551.69z
					"/>
			</g>
		</g>
		<g>
			<circle class="st1" cx="597.55" cy="563.28" r="6.02"/>
		</g>
	</g>
	<path class="st2" d="M603.57,610.78c-6.32,0-12.42-0.9-18.21-2.54c5.49,2.73,11.67,4.27,18.21,4.27c6.54,0,12.72-1.54,18.21-4.27
		C615.99,609.88,609.89,610.78,603.57,610.78z"/>
</g>
<path class="st1" d="M402.62,379.37c0,20.15,5.37,39.04,14.71,55.36c-18.92-11.19-31.62-31.79-31.62-55.36
	c0-23.58,12.7-44.18,31.62-55.36C407.99,340.32,402.62,359.21,402.62,379.37z"/>
<g>
	<path class="st3" d="M1415.83,716.9c-0.4,0.45-0.82,0.9-1.25,1.34c-9.59,9.99-21.8,17.74-35.99,22.07
		c-4.95,1.51-9.92,2.54-14.88,3.11c-2.13,0.25-4.27,0.42-6.39,0.49c-7.57,0.3-15.03-0.44-22.23-2.12c-0.39-0.09-0.78-0.18-1.16-0.29
		c5.44-11.47,15.5-21.55,28.9-27.56C1381.49,705.58,1401.73,707.33,1415.83,716.9z"/>
</g>
<g>
	<path d="M1419.27,670.16c2.7,0,5.36,1.82,6.32,4.29c0.46,1.21,0.52,2.46,0.16,3.85c-0.63,2.48-1.41,4.98-2.33,7.45
		c-3.37,9.06-8.4,17.27-14.94,24.38l-0.06,0.06l-0.06,0.06c-0.29,0.33-0.61,0.67-0.93,1l-0.03,0.03l-0.03,0.03
		c-8.67,9.03-19.63,15.75-31.69,19.43c-4.31,1.31-8.72,2.24-13.13,2.74c-1.92,0.23-3.79,0.37-5.55,0.43l-0.03,0l-0.03,0
		c-0.96,0.04-1.94,0.06-2.9,0.06c-5.59,0-11.2-0.65-16.69-1.93c-0.21-0.05-0.42-0.09-0.63-0.15l-0.19-0.05l-0.19-0.05
		c-11.65-2.89-22.55-8.64-31.51-16.63c-2.89-2.57-2.17-5.73-1.73-6.97c0.36-1,1.84-4.27,5.96-4.45c7.97-0.35,16.18-1.2,24.41-2.54
		c10.29-1.67,20.71-4.1,30.98-7.23c9.94-3.02,19.69-6.71,29-10.95c7.92-3.61,15.46-7.61,22.41-11.86
		C1416.95,670.5,1418.1,670.16,1419.27,670.16 M1419.27,660.16c-2.87,0-5.82,0.77-8.62,2.47c-6.63,4.06-13.77,7.84-21.35,11.3
		c-8.71,3.97-18,7.51-27.76,10.48c-10.03,3.06-19.98,5.36-29.67,6.93c-7.95,1.29-15.73,2.09-23.25,2.42
		c-14.78,0.65-21.49,19.02-10.45,28.87c10.2,9.09,22.49,15.58,35.76,18.87c0.38,0.11,0.77,0.2,1.16,0.29
		c6.15,1.44,12.5,2.19,18.94,2.19c1.09,0,2.19-0.02,3.29-0.07c2.12-0.07,4.26-0.24,6.39-0.49c4.96-0.57,9.93-1.6,14.88-3.11
		c14.19-4.33,26.4-12.08,35.99-22.07c0.43-0.44,0.85-0.89,1.25-1.34c7.41-8.05,13.17-17.47,16.96-27.67
		c1.03-2.77,1.92-5.6,2.65-8.47c0.91-3.55,0.62-6.92-0.51-9.88C1432.49,664.55,1426.13,660.16,1419.27,660.16L1419.27,660.16z"/>
</g>
</svg>
